# xmcd CD database file
#
# Track frame offsets:
#	150
#	22070
#	43217
#	60383
#	85320
#	102550
#	124992
#	150280
#	171052
#	193360
#	214724
#	232822
#	253964
#	278252
#	309479
#
# Disc length: 4460 seconds
#
# Revision: 0
# Processed by: cddbd v1.4PL0 Copyright (c) Steve Scherf et al.
# Submitted via: CD2WAV32(EN) R3.19
#
DISCID=cd116a0f
DTITLE=dramatic love story - kiss -for million lovers-
DYEAR=1900
DGENRE=
TTITLE0=Love story wa totsuzenni
TTITLE1=SAY YES
TTITLE2=TRUE LOVE
TTITLE3=PIECE OF MY WISH
TTITLE4=Riverside hotel
TTITLE5=Koi ni ochite
TTITLE6=SUMMER CANDLES
TTITLE7=Yume wo akiramenaide
TTITLE8=Seppun kiss
TTITLE9=Squall
TTITLE10=SHOW ME
TTITLE11=Silent eve
TTITLE12=Yume with You
TTITLE13=Everything
TTITLE14=Kagayakutoki no nakade
EXTD=
EXTT0=
EXTT1=
EXTT2=
EXTT3=
EXTT4=
EXTT5=
EXTT6=
EXTT7=
EXTT8=
EXTT9=
EXTT10=
EXTT11=
EXTT12=
EXTT13=
EXTT14=
PLAYORDER=
